<svg xmlns="http://www.w3.org/2000/svg" viewBox="0 0 48 48">
  <defs>
    <linearGradient id="grad1" x1="0%" y1="0%" x2="100%" y2="100%">
      <stop offset="0%" style="stop-color:#ffffff;stop-opacity:1" />
      <stop offset="100%" style="stop-color:#e0e0e0;stop-opacity:1" />
    </linearGradient>
  </defs>
  <circle cx="24" cy="24" r="22" fill="url(#grad1)" stroke="#333333" stroke-width="2"/>
  <path d="M24 4 L24 12 M24 36 L24 44 M4 24 L12 24 M36 24 L44 24" stroke="#333333" stroke-width="1.5" fill="none"/>
  <path d="M24 4 L29 10 L24 16 L19 10 Z" fill="#333333"/>
  <path d="M24 44 L29 38 L24 32 L19 38 Z" fill="#333333"/>
  <path d="M4 24 L10 19 L16 24 L10 29 Z" fill="#333333"/>
  <path d="M44 24 L38 19 L32 24 L38 29 Z" fill="#333333"/>
  <polygon points="24,16 28,20 26,25 22,25 20,20" fill="#333333"/>
  <polygon points="24,32 28,28 26,23 22,23 20,28" fill="#333333"/>
  <polygon points="16,24 20,20 22,25 20,30 14,28" fill="#333333"/>
  <polygon points="32,24 28,20 26,25 28,30 34,28" fill="#333333"/>
  <circle cx="24" cy="24" r="6" fill="none" stroke="#333333" stroke-width="1"/>
</svg>